<svg width="30" height="34" viewBox="0 0 30 34" fill="none" xmlns="http://www.w3.org/2000/svg">
<path d="M10 15.6667V19.0001H6.66667V15.6667H10ZM16.6667 15.6667V19.0001H13.3333V15.6667H16.6667ZM23.3333 15.6667V19.0001H20V15.6667H23.3333ZM26.6667 4.00008C27.5507 4.00008 28.3986 4.35127 29.0237 4.97639C29.6488 5.60151 30 6.44936 30 7.33341V30.6667C30 31.5508 29.6488 32.3986 29.0237 33.0238C28.3986 33.6489 27.5507 34.0001 26.6667 34.0001H3.33333C2.44928 34.0001 1.60143 33.6489 0.976311 33.0238C0.351189 32.3986 0 31.5508 0 30.6667V7.33341C0 6.44936 0.351189 5.60151 0.976311 4.97639C1.60143 4.35127 2.44928 4.00008 3.33333 4.00008H5V0.666748H8.33333V4.00008H21.6667V0.666748H25V4.00008H26.6667ZM26.6667 30.6667V12.3334H3.33333V30.6667H26.6667ZM10 22.3334V25.6667H6.66667V22.3334H10ZM16.6667 22.3334V25.6667H13.3333V22.3334H16.6667ZM23.3333 22.3334V25.6667H20V22.3334H23.3333Z" fill="white"/>
</svg>
