<svg width="30" height="27" viewBox="0 0 30 27" fill="none" xmlns="http://www.w3.org/2000/svg">
<path d="M26.5 1.99992C26.1667 0.999919 25.1667 0.333252 24.1667 0.333252H5.83333C4.66667 0.333252 3.83333 0.999919 3.5 1.99992L0 11.9999V25.3333C0 26.1666 0.833333 26.9999 1.66667 26.9999H3.33333C4.33333 26.9999 5 26.1666 5 25.3333V23.6666H25V25.3333C25 26.1666 25.8333 26.9999 26.6667 26.9999H28.3333C29.1667 26.9999 30 26.1666 30 25.3333V11.9999L26.5 1.99992ZM6.33333 3.66659H23.5L25.3333 8.66659H4.66667L6.33333 3.66659ZM26.6667 20.3333H3.33333V11.9999H26.6667V20.3333ZM7.5 13.6666C8.83333 13.6666 10 14.8333 10 16.1666C10 17.4999 8.83333 18.6666 7.5 18.6666C6.16667 18.6666 5 17.4999 5 16.1666C5 14.8333 6.16667 13.6666 7.5 13.6666ZM22.5 13.6666C23.8333 13.6666 25 14.8333 25 16.1666C25 17.4999 23.8333 18.6666 22.5 18.6666C21.1667 18.6666 20 17.4999 20 16.1666C20 14.8333 21.1667 13.6666 22.5 13.6666Z" fill="white"/>
</svg>
