<svg width="28" height="34" viewBox="0 0 28 34" fill="none" xmlns="http://www.w3.org/2000/svg">
<path fill-rule="evenodd" clip-rule="evenodd" d="M5.66667 3.45841C5.16939 3.45841 4.69247 3.65596 4.34084 4.00759C3.98921 4.35922 3.79167 4.83613 3.79167 5.33341V8.66675C3.79167 9.16403 3.98921 9.64094 4.34084 9.99257C4.69247 10.3442 5.16939 10.5417 5.66667 10.5417C6.16395 10.5417 6.64086 10.3442 6.99249 9.99257C7.34412 9.64094 7.54167 9.16403 7.54167 8.66675V5.33341C7.54167 4.83613 7.34412 4.35922 6.99249 4.00759C6.64086 3.65596 6.16395 3.45841 5.66667 3.45841ZM10.4583 5.54175V5.33341C10.4583 4.06258 9.9535 2.84381 9.05489 1.94519C8.15627 1.04658 6.9375 0.541748 5.66667 0.541748C4.39584 0.541748 3.17706 1.04658 2.27845 1.94519C1.37983 2.84381 0.875 4.06259 0.875 5.33341V8.66675C0.875 9.93758 1.37983 11.1564 2.27845 12.055C3.17706 12.9536 4.39584 13.4584 5.66667 13.4584C6.9375 13.4584 8.15627 12.9536 9.05489 12.055C9.9535 11.1564 10.4583 9.93758 10.4583 8.66675V8.45841H12.5417V25.5417H10.4583V25.3334C10.4583 24.0626 9.9535 22.8438 9.05489 21.9452C8.15627 21.0466 6.9375 20.5417 5.66667 20.5417C4.39584 20.5417 3.17706 21.0466 2.27845 21.9452C1.37983 22.8438 0.875 24.0626 0.875 25.3334V28.6667C0.875 29.9376 1.37983 31.1564 2.27845 32.055C3.17706 32.9536 4.39584 33.4584 5.66667 33.4584C6.9375 33.4584 8.15627 32.9536 9.05489 32.055C9.9535 31.1564 10.4583 29.9376 10.4583 28.6667V28.4584H17.5417V28.6667C17.5417 29.9376 18.0465 31.1564 18.9451 32.055C19.8437 32.9536 21.0625 33.4584 22.3333 33.4584C23.6042 33.4584 24.8229 32.9536 25.7216 32.055C26.6202 31.1564 27.125 29.9376 27.125 28.6667V25.3334C27.125 24.0626 26.6202 22.8438 25.7216 21.9452C24.8229 21.0466 23.6042 20.5417 22.3333 20.5417C21.0625 20.5417 19.8437 21.0466 18.9451 21.9452C18.0465 22.8438 17.5417 24.0626 17.5417 25.3334V25.5417H15.4583V8.45841H17.5417V8.66675C17.5417 9.93758 18.0465 11.1564 18.9451 12.055C19.8437 12.9536 21.0625 13.4584 22.3333 13.4584C23.6042 13.4584 24.8229 12.9536 25.7216 12.055C26.6202 11.1564 27.125 9.93758 27.125 8.66675V5.33341C27.125 4.06258 26.6202 2.84381 25.7216 1.94519C24.8229 1.04658 23.6042 0.541748 22.3333 0.541748C21.0625 0.541748 19.8437 1.04658 18.9451 1.94519C18.0465 2.84381 17.5417 4.06258 17.5417 5.33341V5.54175H10.4583ZM20.4583 8.66675C20.4583 9.16403 20.6559 9.64094 21.0075 9.99257C21.3591 10.3442 21.8361 10.5417 22.3333 10.5417C22.8306 10.5417 23.3075 10.3442 23.6592 9.99257C24.0108 9.64094 24.2083 9.16403 24.2083 8.66675V5.33341C24.2083 4.83613 24.0108 4.35922 23.6592 4.00759C23.3075 3.65596 22.8306 3.45841 22.3333 3.45841C21.8361 3.45841 21.3591 3.65596 21.0075 4.00759C20.6559 4.35922 20.4583 4.83613 20.4583 5.33341V8.66675ZM20.4583 28.6667C20.4583 29.164 20.6559 29.6409 21.0075 29.9926C21.3591 30.3442 21.8361 30.5417 22.3333 30.5417C22.8306 30.5417 23.3075 30.3442 23.6592 29.9926C24.0108 29.6409 24.2083 29.164 24.2083 28.6667V25.3334C24.2083 24.8361 24.0108 24.3592 23.6592 24.0076C23.3075 23.656 22.8306 23.4584 22.3333 23.4584C21.8361 23.4584 21.3591 23.656 21.0075 24.0076C20.6559 24.3592 20.4583 24.8361 20.4583 25.3334V28.6667ZM7.54167 25.3334C7.54167 24.8361 7.34412 24.3592 6.99249 24.0076C6.64086 23.656 6.16395 23.4584 5.66667 23.4584C5.16939 23.4584 4.69247 23.656 4.34084 24.0076C3.98921 24.3592 3.79167 24.8361 3.79167 25.3334V28.6667C3.79167 29.164 3.98921 29.6409 4.34084 29.9926C4.69247 30.3442 5.16939 30.5417 5.66667 30.5417C6.16395 30.5417 6.64086 30.3442 6.99249 29.9926C7.34412 29.6409 7.54167 29.164 7.54167 28.6667V25.3334Z" fill="white"/>
</svg>
