<svg width="32" height="32" viewBox="0 0 32 32" fill="none" xmlns="http://www.w3.org/2000/svg">
<path d="M5.33329 26.6667C4.59996 26.6667 3.9724 26.4058 3.45063 25.884C2.92885 25.3622 2.66751 24.7342 2.66663 24V7.99999C2.66663 7.26666 2.92796 6.63911 3.45063 6.11733C3.97329 5.59555 4.60085 5.33422 5.33329 5.33333H26.6666C27.4 5.33333 28.028 5.59466 28.5506 6.11733C29.0733 6.63999 29.3342 7.26755 29.3333 7.99999V24C29.3333 24.7333 29.0724 25.3613 28.5506 25.884C28.0288 26.4067 27.4008 26.6676 26.6666 26.6667H5.33329ZM16 17.3333L5.33329 10.6667V24H26.6666V10.6667L16 17.3333ZM16 14.6667L26.6666 7.99999H5.33329L16 14.6667ZM5.33329 10.6667V7.99999V24V10.6667Z" fill="white"/>
</svg>
