<svg width="37" height="28" viewBox="0 0 37 28" fill="none" xmlns="http://www.w3.org/2000/svg">
<path d="M21.8337 15.6667C20.4448 15.6667 19.2642 15.1806 18.292 14.2084C17.3198 13.2362 16.8337 12.0556 16.8337 10.6667C16.8337 9.27786 17.3198 8.0973 18.292 7.12508C19.2642 6.15286 20.4448 5.66675 21.8337 5.66675C23.2225 5.66675 24.4031 6.15286 25.3753 7.12508C26.3475 8.0973 26.8337 9.27786 26.8337 10.6667C26.8337 12.0556 26.3475 13.2362 25.3753 14.2084C24.4031 15.1806 23.2225 15.6667 21.8337 15.6667ZM10.167 20.6667C9.25033 20.6667 8.46588 20.3406 7.81366 19.6884C7.16144 19.0362 6.83477 18.2512 6.83366 17.3334V4.00008C6.83366 3.08341 7.16033 2.29897 7.81366 1.64675C8.46699 0.994525 9.25144 0.667859 10.167 0.666748H33.5003C34.417 0.666748 35.202 0.993414 35.8553 1.64675C36.5087 2.30008 36.8348 3.08453 36.8337 4.00008V17.3334C36.8337 18.2501 36.5075 19.0351 35.8553 19.6884C35.2031 20.3417 34.4181 20.6679 33.5003 20.6667H10.167ZM13.5003 17.3334H30.167C30.167 16.4167 30.4937 15.6323 31.147 14.9801C31.8003 14.3279 32.5848 14.0012 33.5003 14.0001V7.33341C32.5837 7.33341 31.7992 7.0073 31.147 6.35508C30.4948 5.70286 30.1681 4.91786 30.167 4.00008H13.5003C13.5003 4.91675 13.1742 5.70175 12.522 6.35508C11.8698 7.00841 11.0848 7.33453 10.167 7.33341V14.0001C11.0837 14.0001 11.8687 14.3267 12.522 14.9801C13.1753 15.6334 13.5014 16.4179 13.5003 17.3334ZM31.8337 27.3334H3.50033C2.58366 27.3334 1.79921 27.0073 1.14699 26.3551C0.49477 25.7029 0.168103 24.9179 0.166992 24.0001V5.66675H3.50033V24.0001H31.8337V27.3334Z" fill="white"/>
</svg>
