<svg width="32" height="29" viewBox="0 0 32 29" fill="none" xmlns="http://www.w3.org/2000/svg">
<path d="M32 16C32 21.2 29.6 25.8 25.8 28.6L24.8 27.6L20.6 23.4L23.4 20.6L25.8 23C26.8 21.6 27.6 19.8 27.8 18H24V14H27.8C27.4 12.2 26.8 10.6 25.8 9L23.4 11.4L20.6 8.6L23 6.2C21.6 5.2 19.8 4.4 18 4.2V8H14V4.2C12.2 4.6 10.6 5.2 9 6.2L15 12.2C15.4 12.2 15.6 12 16 12C17.0609 12 18.0783 12.4214 18.8284 13.1716C19.5786 13.9217 20 14.9391 20 16C20 17.0609 19.5786 18.0783 18.8284 18.8284C18.0783 19.5786 17.0609 20 16 20C13.78 20 12 18.22 12 16C12 15.6 12 15.4 12.2 15L6.2 9C5.2 10.4 4.4 12.2 4.2 14H8V18H4.2C4.6 19.8 5.2 21.4 6.2 23L8.6 20.6L11.4 23.4L6.2 28.6C2.4 25.8 0 21.2 0 16C0 7.16 7.16 0 16 0C24.84 0 32 7.16 32 16Z" fill="white"/>
</svg>
