<svg width="48" height="48" viewBox="0 0 48 48" fill="none" xmlns="http://www.w3.org/2000/svg">
<path d="M22 42V38H38V23.8C38 19.9 36.642 16.592 33.926 13.876C31.21 11.16 27.9013 9.80133 24 9.8C20.0987 9.79867 16.7907 11.1573 14.076 13.876C11.3613 16.5947 10.0027 19.9027 10 23.8V36H8C6.9 36 5.95867 35.6087 5.176 34.826C4.39333 34.0433 4.00133 33.1013 4 32V28C4 27.3 4.17533 26.642 4.526 26.026C4.87667 25.41 5.368 24.918 6 24.55L6.15 21.9C6.41667 19.6333 7.07533 17.5333 8.126 15.6C9.17667 13.6667 10.4933 11.9833 12.076 10.55C13.6587 9.11667 15.4747 8 17.524 7.2C19.5733 6.4 21.732 6 24 6C26.268 6 28.418 6.4 30.45 7.2C32.482 8 34.2987 9.10867 35.9 10.526C37.5013 11.9433 38.818 13.618 39.85 15.55C40.882 17.482 41.5487 19.582 41.85 21.85L42 24.45C42.6333 24.75 43.1253 25.2 43.476 25.8C43.8267 26.4 44.0013 27.0333 44 27.7V32.3C44 32.9667 43.8253 33.6 43.476 34.2C43.1267 34.8 42.6347 35.25 42 35.55V38C42 39.1 41.6087 40.042 40.826 40.826C40.0433 41.61 39.1013 42.0013 38 42H22ZM18 28C17.4333 28 16.9587 27.808 16.576 27.424C16.1933 27.04 16.0013 26.5653 16 26C15.9987 25.4347 16.1907 24.96 16.576 24.576C16.9613 24.192 17.436 24 18 24C18.564 24 19.0393 24.192 19.426 24.576C19.8127 24.96 20.004 25.4347 20 26C19.996 26.5653 19.804 27.0407 19.424 27.426C19.044 27.8113 18.5693 28.0027 18 28ZM30 28C29.4333 28 28.9587 27.808 28.576 27.424C28.1933 27.04 28.0013 26.5653 28 26C27.9987 25.4347 28.1907 24.96 28.576 24.576C28.9613 24.192 29.436 24 30 24C30.564 24 31.0393 24.192 31.426 24.576C31.8127 24.96 32.004 25.4347 32 26C31.996 26.5653 31.804 27.0407 31.424 27.426C31.044 27.8113 30.5693 28.0027 30 28ZM12.05 24.9C11.8167 21.3667 12.8833 18.3333 15.25 15.8C17.6167 13.2667 20.5667 12 24.1 12C27.0667 12 29.6753 12.9413 31.926 14.824C34.1767 16.7067 35.5347 19.116 36 22.052C32.9667 22.0173 30.1753 21.2 27.626 19.6C25.0767 18 23.118 15.8333 21.75 13.1C21.2167 15.7667 20.092 18.142 18.376 20.226C16.66 22.31 14.5513 23.868 12.05 24.9Z" fill="#727272"/>
</svg>
